<?xml version="1.0" encoding="UTF-8"?>
<svg id="Layer_2" data-name="Layer 2" xmlns="http://www.w3.org/2000/svg" viewBox="0 0 209.62 154.66">
  <defs>
    <style>
      .cls-1 {
        fill: #fff;
      }

      .cls-2 {
        fill: #5f6899;
      }

      .cls-3 {
        fill: #ea6a80;
      }

      .cls-4 {
        stroke: #fff;
        stroke-width: .75px;
      }

      .cls-4, .cls-5, .cls-6 {
        stroke-miterlimit: 10;
      }

      .cls-4, .cls-7 {
        fill: #231f20;
      }

      .cls-8 {
        fill: #c55757;
      }

      .cls-9 {
        fill: #db9c86;
      }

      .cls-10, .cls-11 {
        fill: #fdd6bc;
      }

      .cls-12 {
        fill: #563a32;
      }

      .cls-13 {
        stroke-width: 1.6px;
      }

      .cls-13, .cls-5, .cls-14, .cls-6, .cls-11, .cls-15 {
        stroke: #231f20;
      }

      .cls-13, .cls-5, .cls-14, .cls-15 {
        fill: none;
      }

      .cls-13, .cls-14, .cls-11, .cls-15 {
        stroke-linecap: round;
        stroke-linejoin: round;
      }

      .cls-16 {
        fill: #f69a9e;
      }

      .cls-17 {
        fill: #99c0d3;
      }

      .cls-5 {
        stroke-width: 1.3px;
      }

      .cls-18 {
        fill: #3a5e94;
      }

      .cls-14 {
        stroke-width: 1.2px;
      }

      .cls-6 {
        fill: #b1b099;
      }

      .cls-11, .cls-15 {
        stroke-width: 1.4px;
      }

      .cls-19 {
        fill: #869ed1;
      }

      .cls-20 {
        fill: #8c6c62;
      }

      .cls-21 {
        fill: #e5a390;
      }

      .cls-22 {
        fill: #d4e0f2;
      }

      .cls-23 {
        fill: #d5d3be;
      }
    </style>
  </defs>
  <g id="_ƒŒƒCƒ__1" data-name="ƒŒƒCƒ„[_1">
    <polygon class="cls-1" points="107.82 121.43 106.74 116.76 120.24 107.34 121.4 112.76 107.82 121.43"/>
    <path class="cls-2" d="m208.76,153.95s.5-20.74-.29-30.84c-.8-10.34-3.27-11.37-6.77-13.75-5.98-4.07-24.07-9.78-24.07-9.78h-17.75s-18.02,5.8-24.21,9.36l-13.06,13-2-11.06-13.19,9.38s3.94,22.88,4.94,24.56,3.06,3.69,5,3.31c1.94-.38,8.81-5.31,8.81-5.31l12-9.81,3.06,20.94h67.53Z"/>
    <path class="cls-19" d="m137.96,109.84c5.98-4.07,22.58-7.4,22.58-7.4h17.75s18.09,5.71,24.07,9.78c2.07,1.41,3.77,2.36,4.99,5.02-1.2-4.81-3.24-5.84-5.88-7.63-5.98-4.07-24.07-9.78-24.07-9.78h-17.75s-18.07,5.09-24.05,9.16l-12.99,12.96.52,2.06s10.67-11.62,14.83-14.17Z"/>
    <path class="cls-1" d="m168.71,153.96s-7.94-29.87-9.01-40.18c-.93-9-.02-12.96-.02-12.96,0,0,2.26-3.69,3.76-5.42h10.52c1.93,1.35,3.76,5.42,3.76,5.42,0,0,.92,3.96-.02,12.96-1.07,10.31-9.01,40.18-9.01,40.18"/>
    <path class="cls-17" d="m161.95,113.78l4.44-5.45,5.12-.33,4.39,5.78s-7.08-3.25-13.95,0Z"/>
    <path class="cls-18" d="m168.71,153.96s-1.8-6.64-3.81-14.91l-.34-1.41c.56-6.62,2.89-23.37,2.89-23.37l-2.09-4.63,3.35-4.29,3.03,4.29-2.09,4.63s2.34,16.75,2.89,23.37l-.14,1.86c-1.96,8.07-3.7,14.46-3.7,14.46"/>
    <path class="cls-10" d="m173.02,95.02s.51,2.44.95,5.05l-.44,1.03c-1.72,2.22-4.82,4.24-4.82,4.24h0s-3.35-2.19-5.02-4.51l-.24-.77c.43-2.61.95-5.05.95-5.05"/>
    <path class="cls-21" d="m164.46,93.95h8.51l.34,1.69s-4.72,3.66-9.72,2.41l.86-4.1Z"/>
    <path class="cls-6" d="m189.04,142.34c1.43,0,4.89-2.69,4.89-5.27,0-1.27-.36-2.48-.87-3.05-.82-.91-2.35-1.14-4.02-1.14s-3.2.22-4.02,1.14c-.51.57-.87,1.78-.87,3.05,0,2.57,3.46,5.27,4.89,5.27Z"/>
    <path class="cls-23" d="m189.04,140.39c.9,0,3.08-1.7,3.08-3.32,0-.8-.23-1.56-.55-1.92-.52-.58-1.48-.72-2.53-.72s-2.02.14-2.53.72c-.32.36-.55,1.12-.55,1.92,0,1.62,2.18,3.32,3.08,3.32Z"/>
    <path class="cls-15" d="m164.39,95.02s-.51,2.44-.95,5.05"/>
    <path class="cls-14" d="m168.71,153.96s-7.94-29.87-9.01-40.18c-.93-9-.02-12.96-.02-12.96,0,0,2.28-4.03,4.23-5.42"/>
    <polyline class="cls-14" points="156.76 101.03 149.22 111.14 156.38 113.78 149.74 119.51 166.88 153.96"/>
    <line class="cls-14" x1="135.72" y1="116.82" x2="141.18" y2="153.96"/>
    <path class="cls-15" d="m177.17,99.68s18.55,5.8,24.54,9.87c3.5,2.38,5.97,3.41,6.77,13.75.79,10.1.29,30.65.29,30.65"/>
    <line class="cls-14" x1="201.8" y1="116.82" x2="196.34" y2="153.96"/>
    <path class="cls-14" d="m159.36,107.15s.91,4.88,2.16,6.62l7.2-8.43s-5.11-3.33-5.85-6.13"/>
    <path class="cls-15" d="m173.02,95.02s.51,2.44.95,5.05"/>
    <path class="cls-14" d="m168.71,153.96s7.94-29.87,9.01-40.18c.93-9,.02-12.96.02-12.96,0,0-2.06-3.74-4.23-5.42"/>
    <polyline class="cls-14" points="180.66 101.03 188.2 111.14 181.03 113.78 187.68 119.51 170.53 153.96"/>
    <path class="cls-14" d="m178.06,107.15s-.91,4.88-2.16,6.62l-7.2-8.43s5.11-3.33,5.85-6.13"/>
    <path class="cls-14" d="m165.37,109.63l2.09,4.63s-2.33,16.75-2.89,23.37"/>
    <path class="cls-14" d="m171.75,109.63l-2.09,4.63s2.34,16.75,2.89,23.37"/>
    <path class="cls-10" d="m110.51,113.64l-2.13-11.28s-6.67-1.65-8.66-10.17c0,0-3.68-4.42-3.99-6.33-.34-2.11,1.99-4.12,4.19-3.67,0,0,1.01-4.12,4.72-3.94,0,0,1.51-3.44,5.22-2.43,0,0-1.7-11.48-1.97-15.19-.28-3.71,3.99-3.99,4.74-1.17.56,2.08,5.77,23.86,5.77,23.86l.07.34c2.09.99,3.02,2.2,2.75,5.84-.27,3.57-2.48,8.14-2.48,8.14l1.44,9.29"/>
    <path class="cls-9" d="m100.5,92.8s1.92,1.62,3.47.93c1.55-.69,1.89-2.3,1.89-2.3,0,0,1.82.17,2.75-.65.93-.82,2.17-2.82,2.17-2.82l1.82,1.24s-3.37,4.3-3.27,6.15c0,0-6.84.65-7.67.89-.83.24-1.17-3.44-1.17-3.44Z"/>
    <path class="cls-15" d="m159.99,99.76s-21.69,6.19-25.67,10.15c-3.45,3.43-11.37,11.92-11.37,11.92"/>
    <path class="cls-15" d="m124.59,134.11l-4.39-27.17-13.3,9.9s4.77,25.79,5.96,28.72c1.19,2.93,5.35,3.36,8.98.64,4.77-3.57,16.02-13.45,16.02-13.45"/>
    <line class="cls-15" x1="120.7" y1="110.44" x2="107.9" y2="120.09"/>
    <path class="cls-15" d="m110.51,113.64l-2.13-11.28s-6.67-1.65-8.66-10.17c0,0-3.68-4.42-3.99-6.33-.34-2.11,1.99-4.12,4.19-3.67,0,0,1.01-4.12,4.72-3.94,0,0,1.51-3.44,5.22-2.43,0,0-1.7-11.48-1.97-15.19-.28-3.71,3.99-3.99,4.74-1.17.56,2.08,5.77,23.86,5.77,23.86l.07.34c2.09.99,3.02,2.2,2.75,5.84-.27,3.57-2.48,8.14-2.48,8.14l1.44,9.29"/>
    <path class="cls-14" d="m118.49,83.67c-4.06-1.92-9.97-2.2-10.38.07-.41,2.27,3.78,5.16,6.33,5.71"/>
    <path class="cls-14" d="m112.57,89.03s-4.61,4.95-3.02,9.01"/>
    <line class="cls-14" x1="109.87" y1="75.83" x2="112.3" y2="81.92"/>
    <line class="cls-14" x1="104.64" y1="78.21" x2="108.04" y2="83.76"/>
    <path class="cls-14" d="m99.65,92.15s2.05,1.66,3.35,1.7c1.79.05,2.98-.96,2.84-2.66,0,0,3.07.83,4.72-2.7"/>
    <path class="cls-14" d="m99.92,82.2s3.58,7.42,6.23,8.89"/>
    <path class="cls-12" d="m189.15,8.33s6.22-1.57,11.47,5.05c2.25,2.84.3,2.17-2.03,2.3,3.17,4.33,9.38,13.66,4.92,35.97l-10.2,6.63-47.44.06-11.55-6.6s-2.8-17.9,1.45-26.06c0,0-2.72.51-3.74.08-1.02-.42,5.61-9.01,13.52-11.56,0,0-4.33-.68-5.61-1.28-1.28-.59,5.27-5.7,14.11-5.78,0,0,6.31-3.84,7.23-3.97.92-.12,20.38.33,21.62,1.04s6.25,4.11,6.25,4.11Z"/>
    <path class="cls-20" d="m138.44,12.75c.88,1.25,3.03,1.12,4.33,1.38,1.13.22.63.51.08.75-7.14,3.1-11.77,10.48-10.82,10.87,1.02.42,3.74-.08,3.74-.08-4.25,8.16-1.45,26.06-1.45,26.06l.76,1.46c-.83-3.75-1.09-17.81,2.6-26.29,3.55-8.16,26.99-29.61,51.4-16.52.32.17,1.28.53,1.89.53,1.98,0,6.6,2.45,10.78,4.86-.06-.56-1.41-3.72-4.19-5.25-5.34-2.94-8.41-2.18-8.41-2.18,0,0-5.38-4.53-8.38-5.57S172.69,0,163.13,1.25c-3.01.39-10.05,2.29-16.06,5.25-4.96,2.45-8.89,5.87-8.62,6.25Z"/>
    <path class="cls-20" d="m199.35,16.07s7,10.12,5.69,24.94c0,0-2-14.5-7-21.81-2.75-4.02.37-4.19,1.31-3.12Z"/>
    <path class="cls-11" d="m139.59,53.63s-5.97-4.7-8.22,2.67c-2.58,8.47,5.83,18.23,11.17,18.83"/>
    <path class="cls-21" d="m134.66,64.35c1.23,2.74,3.56,4.39,5.2,3.68,1.64-.71,1.98-3.51.75-6.25-1.23-2.74-3.56-4.39-5.2-3.68-1.64.71-1.98,3.51-.75,6.25Z"/>
    <path class="cls-15" d="m134.57,56.55s3.17-1.37,5.63,3.95"/>
    <path class="cls-11" d="m197.83,53.63s5.97-4.7,8.22,2.67c2.58,8.47-5.83,18.23-11.17,18.83"/>
    <path class="cls-21" d="m202.76,64.35c-1.23,2.74-3.56,4.39-5.2,3.68-1.64-.71-1.98-3.51-.75-6.25,1.23-2.74,3.56-4.39,5.2-3.68,1.64.71,1.98,3.51.75,6.25Z"/>
    <path class="cls-15" d="m202.86,56.55s-3.17-1.37-5.63,3.95"/>
    <path class="cls-20" d="m149.79,14s7.58,2.82,15.92,1.46c0,0,3.2.34-2.79,1.77-6,1.43-16.26,2.52-20.43,1.55l7.3-4.78Z"/>
    <path class="cls-11" d="m198.99,49.37c-.26,6.62-1.52,20.83-5.53,29.82-3.93,8.79-16.25,15.06-24.63,15.06-8.86,0-21.36-6.59-24.63-15.06-3.54-9.17-5.26-23.19-5.53-29.82.07-2.85.32-10.61,2.82-13.86,0,0,.23,1.04,2.33.08,2.75-1.25,10.75-6.83,12.17-8.58,0,0-1.59,2.63-.83,3.25,1.42,1.17,12.67-2.75,16.67-5.42,0,0-4.3,3.67-4.33,4.67-.08,2.33,19.08-2.5,21.58-5.08,0,0,.17,8.92,2.83,14.58.77,1.63,1.83.58,2.25-3.83,0,0,3.58,4.01,4.82,14.2Z"/>
    <path class="cls-14" d="m166.74,56.92s.69,2.58.23,5.24"/>
    <path class="cls-14" d="m168.17,60.68s-2.79,3.42-2.86,4.66c-.07,1.23,2.29,3.29,2.29,3.29"/>
    <path class="cls-16" d="m152.01,63.15c0,1.45-2.36,2.62-5.26,2.62s-5.26-1.17-5.26-2.62,2.36-2.62,5.26-2.62,5.26,1.17,5.26,2.62Z"/>
    <path class="cls-16" d="m185.5,63.15c0,1.45,2.36,2.62,5.26,2.62s5.26-1.17,5.26-2.62-2.36-2.62-5.26-2.62-5.26,1.17-5.26,2.62Z"/>
    <path class="cls-7" d="m163.17,40.63c-.32.36-2.2-1.11-4.62-1.44-1.19-.19-2.48-.15-3.58-.01-1.12.12-1.85.4-2.29.57-.84.33-1.71.92-2.39,1.37-.7.44-1.26.76-1.74.39-.47-.36-.24-1.12.46-1.88.69-.76,1.83-1.44,2.88-1.86.27-.1.65-.25,1.15-.38.5-.13,1.13-.22,1.73-.27,1.25-.1,2.77-.05,4.17.34,1.4.38,2.61,1.1,3.33,1.77.73.67,1.05,1.23.9,1.4Z"/>
    <path class="cls-7" d="m175.4,40.63c-.15-.17.17-.73.9-1.4.73-.67,1.93-1.39,3.33-1.77,1.4-.39,2.92-.44,4.17-.34.61.05,1.24.13,1.73.27.5.12.89.28,1.15.38,1.05.42,2.19,1.1,2.88,1.86.7.76.93,1.52.46,1.88-.48.37-1.05.05-1.74-.39-.69-.45-1.56-1.04-2.39-1.37-.44-.18-1.18-.45-2.29-.57-1.1-.14-2.39-.18-3.58.01-2.41.33-4.3,1.8-4.62,1.44Z"/>
    <path class="cls-15" d="m134.33,51.73s-2.8-17.9,1.45-26.06c0,0-2.72.51-3.74.08-1.02-.42,3.84-8.82,11.74-11.37,0,0-4.1-.65-5.08-1.25-2.38-1.44,10-7.62,17-10.08,9.41-3.3,23.44-4.35,33.46,5.28,4.19-.09,9.79,1.55,12.41,6.24,1.41,2.52-2.58,1.03-3.02.9,3.1,3.94,9.45,13.4,4.8,36.64"/>
    <path class="cls-3" d="m168.53,73.31c6.41,0,9.7-1.45,9.7-1.45.06,3.45-.84,17.2-9.38,17.2s-9.44-13.75-9.38-17.2c0,0,2.66,1.45,9.06,1.45Z"/>
    <path class="cls-8" d="m168.96,75.72c3.29,0,6.31,1.21,8.74,3.01.46-2.6.55-5.7.53-6.87,0,0-3.3,1.45-9.7,1.45s-9.06-1.45-9.06-1.45c-.02,1.19.08,4.37.56,7.02,2.34-2.01,5.56-3.15,8.94-3.15Z"/>
    <path class="cls-14" d="m168.53,73.31c6.41,0,9.7-1.45,9.7-1.45.06,3.45-.84,17.2-9.38,17.2s-9.44-13.75-9.38-17.2c0,0,2.66,1.45,9.06,1.45Z"/>
    <path class="cls-7" d="m158.55,53.32c0,2.87-1.82,5.21-4.07,5.21s-4.07-2.33-4.07-5.21,1.82-5.21,4.07-5.21,4.07,2.33,4.07,5.21Z"/>
    <path class="cls-1" d="m147.18,53.57c0,3.88,2.88,7.02,6.43,7.02s6.43-3.14,6.43-7.02-1.24-8.22-6.43-8.22-6.43,4.34-6.43,8.22Z"/>
    <path class="cls-1" d="m188.06,53.57c0,3.88-2.88,7.02-6.43,7.02s-6.43-3.14-6.43-7.02,1.24-8.22,6.43-8.22,6.43,4.34,6.43,8.22Z"/>
    <path class="cls-22" d="m158.8,48.64c-.67-.89-2.44-4-6.11-3.22-3.67.78-4.89,3.11-5.22,4.77,0,0,3.89-5.11,11.33-1.55Z"/>
    <path class="cls-22" d="m176.45,48.64c.67-.89,2.44-4,6.11-3.22,3.66.78,4.89,3.11,5.22,4.77,0,0-3.89-5.11-11.33-1.55Z"/>
    <path class="cls-7" d="m158.55,53.32c0,2.76-1.82,5.01-4.07,5.01s-4.07-2.24-4.07-5.01,1.82-5.01,4.07-5.01,4.07,2.24,4.07,5.01Z"/>
    <path class="cls-7" d="m176.68,53.32c0,2.76,1.82,5.01,4.07,5.01s4.07-2.24,4.07-5.01-1.82-5.01-4.07-5.01-4.07,2.24-4.07,5.01Z"/>
    <path class="cls-1" d="m158.13,50.98c0,.6-.43,1.09-.97,1.09s-.97-.49-.97-1.09.43-1.09.97-1.09.97.49.97,1.09Z"/>
    <path class="cls-1" d="m184.46,50.98c0,.6-.43,1.09-.97,1.09s-.97-.49-.97-1.09.43-1.09.97-1.09.97.49.97,1.09Z"/>
    <path class="cls-13" d="m159.65,50.2s-1.82-5.82-7.78-4.75c-4.81.86-4.86,7.01-4.86,7.01"/>
    <path class="cls-13" d="m175.59,50.2s1.82-5.82,7.78-4.75c4.81.86,4.86,7.01,4.86,7.01"/>
    <g>
      <path class="cls-5" d="m165.38,58.55c0,1.39-1.13,2.52-2.52,2.52h-16.86c-1.39,0-2.62-1.13-2.73-2.51l-.94-9.47c-.12-1.38.93-2.51,2.31-2.51h18.98c1.39,0,2.52,1.14,2.52,2.52l-.76,9.45Z"/>
      <path class="cls-5" d="m193.5,58.56c-.11,1.38-1.33,2.52-2.72,2.52h-17.14c-1.39,0-2.52-1.14-2.52-2.52l-.56-9.45c0-1.39,1.14-2.52,2.52-2.52h18.98c1.39,0,2.43,1.13,2.33,2.52l-.88,9.46Z"/>
      <line class="cls-5" x1="166.49" y1="52.64" x2="170.48" y2="52.64"/>
      <line class="cls-5" x1="194.12" y1="51.15" x2="199.11" y2="51.15"/>
      <line class="cls-5" x1="138.3" y1="51.15" x2="142.74" y2="51.15"/>
    </g>
    <g>
      <path class="cls-4" d="m4.92,33.76c-.12.3-.5.97-1.12,1.99-.63,1.03-1.06,1.6-1.31,1.72-.24.12-.46.18-.64.18-.26,0-.57-.14-.93-.42s-.54-.57-.54-.88c0-.28.9-1.79,2.7-4.52.98-1.5,1.88-2.98,2.69-4.45,1.63-2.96,2.62-4.69,2.98-5.17.36-.48.73-.73,1.11-.73.61,0,1.05.16,1.32.47.14.1.2.34.2.72,0,.28-.03.5-.08.68,1.31,4,2.34,6.82,3.08,8.48.74,1.66,1.48,2.86,2.23,3.6.37.37.6.62.68.75.08.13.12.3.12.52,0,.39-.14.73-.43.99-.29.27-.63.4-1.02.4-.54,0-1.1-.32-1.66-.95-.56-.63-1.09-1.5-1.59-2.6-.5-1.1-.75-1.72-.75-1.86,0-.03-.02-.04-.05-.04-.39,0-1.25.14-2.58.41-1.34.27-2.41.54-3.22.79-.21.06-.39.1-.55.1-.28,0-.49-.06-.64-.19Zm6.19-3.29c-.17-.42-.68-1.93-1.53-4.51-.08-.24-.13-.39-.16-.45l-3.05,5.8c.45-.08.91-.15,1.39-.21.31-.04,1.12-.19,2.41-.45.31-.06.63-.12.95-.17Z"/>
      <path class="cls-4" d="m27.88,35.66c-.34-.64-.59-1.85-.75-3.61-.16-1.83-.51-2.75-1.05-2.75-.52,0-1.41.95-2.67,2.86-1.27,1.91-2.05,3.32-2.34,4.23-.06.27-.18.5-.36.68-.18.18-.35.27-.52.27-1.09,0-1.63-.5-1.63-1.49,0-.34.11-1.1.32-2.3.28-1.55.42-3.44.42-5.67,0-.34.15-.7.44-1.08.29-.38.6-.57.93-.57.42,0,.73.1.96.31.22.21.33.76.33,1.65,0,.68-.2,2-.61,3.95,1.55-3.64,3.29-5.46,5.2-5.46,1.66,0,2.64,1.31,2.92,3.92.29,2.66.62,4,.99,4,.16,0,.35-.04.57-.11.26-.09.46-.13.61-.13.34,0,.52.2.52.6,0,.37-.24.75-.71,1.17-.47.41-1.07.62-1.78.62-.83,0-1.43-.36-1.78-1.08h.01Z"/>
      <path class="cls-4" d="m40.99,33.64c-1.85,2.63-3.72,3.94-5.6,3.94-.76,0-1.37-.3-1.84-.9-.47-.6-.7-1.36-.7-2.28,0-1.87.76-3.73,2.29-5.58,1.53-1.85,3.08-2.77,4.65-2.77.9,0,1.54.24,1.92.71.54-2.35.86-3.82.96-4.4.21-1.09.39-1.81.54-2.17.14-.36.36-.64.66-.83.29-.2.55-.3.76-.3.37,0,.64.15.84.45s.29.68.29,1.14c0,.2-.16.78-.47,1.73-.52,1.55-.99,3.42-1.43,5.61s-.66,3.94-.66,5.23.27,1.86.82,1.86c.28,0,.58-.08.89-.23.31-.14.54-.21.67-.21.35,0,.53.2.53.61,0,.49-.36.99-1.07,1.48-.71.49-1.39.74-2.02.74-.69,0-1.22-.37-1.59-1.11-.37-.74-.51-1.64-.42-2.72Zm-1.19-5.51c-.94,0-1.92.72-2.94,2.15-1.02,1.43-1.53,2.74-1.53,3.93,0,.69.26,1.04.77,1.04.87,0,1.92-.78,3.13-2.33,1.21-1.55,1.82-2.78,1.82-3.68,0-.27-.11-.52-.34-.76-.23-.23-.53-.35-.9-.35Z"/>
      <path class="cls-4" d="m58.26,30.9c-.11,1.74-.32,3.43-.61,5.06s-.72,3.12-1.28,4.45c-.56,1.33-1.17,2.24-1.82,2.72-.65.48-1.42.73-2.31.73-.96,0-1.88-.18-2.76-.55h.01c-.76-.32-1.42-.74-1.98-1.27-.56-.53-.84-.98-.84-1.34,0-.34.08-.61.25-.81.17-.2.39-.3.66-.3.24,0,.43.1.59.3.92,1.18,2.25,1.77,4,1.77.71,0,1.39-.74,2.05-2.22.66-1.48,1.07-3.26,1.25-5.34-2.21,1.75-3.92,2.62-5.11,2.62-.77,0-1.39-.31-1.84-.92-.45-.62-.68-1.36-.68-2.22s.2-2.12.61-3.78c.4-1.65.75-2.67,1.03-3.07.28-.4.74-.6,1.38-.6.34,0,.61.15.79.45.19.3.28.62.28.98,0,.11-.26.71-.77,1.82-.63,1.35-.95,2.51-.95,3.48,0,.5.07.88.21,1.14.14.26.28.39.44.39.34,0,.76-.1,1.25-.31.49-.21,1.07-.57,1.73-1.08.66-.51,1.09-.9,1.28-1.17.19-.26.35-.61.46-1.03.11-.42.2-1.34.27-2.77.04-.83.08-1.35.12-1.57.05-.21.17-.41.38-.59.21-.18.49-.27.84-.27.47,0,.81.1,1,.3.2.2.3.67.3,1.42l-.24,3.56Z"/>
      <path class="cls-4" d="m71.53,36.72c-.17,0-.47-.02-.89-.06-.42-.04-.73-.05-.93-.05-1.96,0-3.85.29-5.69.87-.76.24-1.3.37-1.62.37-.44,0-.78-.17-1.02-.52-.24-.34-.37-.67-.37-.99,0-.13.06-.46.19-.99.16-.66.3-1.41.4-2.26l.97-8.91c.08-.84.15-1.39.21-1.64.06-.25.22-.48.47-.68.25-.2.59-.3,1.02-.3.34,0,.64.13.9.39s.39.54.39.84c0,.27-.06.76-.19,1.46-.19,1-.45,2.93-.78,5.78-.34,2.85-.5,4.36-.5,4.52,0,.21.04.31.11.31.27,0,1.02-.1,2.25-.29.57-.09,1.15-.15,1.74-.18,1.68-.08,2.85-.2,3.52-.37.21-.05.37-.08.47-.08.39,0,.7.12.92.35.22.23.33.51.33.83,0,.48-.19.86-.57,1.15-.38.29-.82.44-1.31.44Z"/>
      <path class="cls-4" d="m82.02,33.63c-1.88,2.49-3.7,3.73-5.46,3.73-.64,0-1.2-.25-1.67-.76-.47-.51-.7-1.16-.7-1.94,0-1.9.84-3.92,2.54-6.06,1.69-2.14,3.39-3.22,5.11-3.22.87,0,1.45.44,1.72,1.32.82,0,1.24.32,1.24.95,0,.3-.08.85-.24,1.63-.29,1.48-.43,2.65-.43,3.53s.06,1.56.19,1.93c.12.37.22.62.27.73.06.11.23.24.52.37.29.14.43.33.43.57,0,.37-.18.67-.55.91-.37.24-.75.37-1.15.37-1.35,0-1.95-1.35-1.82-4.05Zm-.64-5.96c-.72,0-1.66.8-2.82,2.4-1.16,1.6-1.73,2.96-1.73,4.08,0,.59.12.88.37.88.84,0,1.89-.75,3.12-2.25,1.24-1.5,1.85-2.81,1.85-3.94,0-.36-.08-.64-.24-.85-.16-.21-.34-.32-.54-.32Z"/>
      <path class="cls-4" d="m96.21,30.48c-.07.11-.62,1.25-1.63,3.39-.09.19-.14.29-.15.31-1.22,2.46-2.16,3.68-2.81,3.68-1.03,0-1.93-1.28-2.71-3.84-.77-2.56-1.16-4.69-1.16-6.4,0-.62.15-1.11.44-1.49.29-.38.7-.57,1.24-.57.34,0,.64.15.9.44.26.29.39.57.39.83l-.1,1.42c-.03.43-.04.86-.04,1.29,0,.76.16,1.77.47,3.02.31,1.26.54,1.89.67,1.89.09,0,.45-.64,1.08-1.91.82-1.67,1.49-2.93,2-3.78h-.01c.72-1.36,1.35-2.25,1.9-2.67.47.05.84.19,1.12.42.28.23.42.5.42.81,0,.24-.01.42-.03.54-.03.12-.04.23-.04.33,0,2.16.6,4.11,1.79,5.83.08.08.15.03.21-.14.06-.17.21-.7.45-1.59.44-1.65.93-3.08,1.48-4.3.55-1.22,1-1.98,1.35-2.27.35-.29.75-.44,1.19-.44.28,0,.52.11.73.32.2.21.31.44.31.69,0,.3-.06.54-.19.71-.92,1.23-1.74,2.94-2.46,5.11-.74,2.26-1.25,3.63-1.54,4.14-.29.5-.53.75-.73.75-.67,0-1.21-.12-1.64-.37-.43-.25-.84-.71-1.24-1.38-.4-.67-.76-1.52-1.08-2.55-.32-1.02-.52-1.76-.58-2.21Z"/>
      <path class="cls-4" d="m107.04,25.24c.11-.79.36-1.63.74-2.53.38-.9.83-1.35,1.34-1.35.34,0,.6.11.78.32.19.21.28.47.28.77,0,.21-.09.51-.26.91-.12.26-.24.59-.35,1.01-.04.15-.11.37-.2.67-.21.73-.32,1.44-.32,2.13,0,.94-.1,1.54-.3,1.79-.2.26-.48.39-.85.39-.34,0-.63-.17-.85-.52s-.34-.72-.34-1.13c0-.49.11-1.32.33-2.47Z"/>
      <path class="cls-4" d="m116.97,34.5c-.03-.39-.64-.86-1.85-1.42-1.48-.71-2.42-1.32-2.83-1.83-.41-.51-.61-1.07-.61-1.67,0-1.27.71-2.38,2.13-3.32,1.42-.95,2.75-1.42,3.98-1.42s1.82.53,1.82,1.58c0,.28-.14.53-.41.75-.28.22-.51.33-.7.33-.08,0-.22-.05-.42-.15-.2-.1-.35-.15-.46-.15-.64,0-1.34.21-2.11.64-.77.43-1.15.93-1.15,1.5,0,.28.14.55.41.81.27.26.83.59,1.67.98,1.24.59,2.06,1.12,2.45,1.59.39.47.59,1,.59,1.57,0,1.05-.71,1.92-2.12,2.62-1.41.7-3,1.05-4.76,1.05-1.3,0-1.94-.47-1.94-1.41,0-.34.14-.64.41-.88.27-.24.58-.37.91-.37.14,0,.35.05.63.15.29.11.55.16.79.16.67,0,1.38-.11,2.12-.32.74-.21,1.22-.48,1.46-.79Z"/>
      <path class="cls-4" d="m12.47,66.72c-.17,0-.47-.02-.89-.06-.42-.04-.73-.05-.93-.05-1.96,0-3.85.29-5.69.87-.76.24-1.3.37-1.62.37-.44,0-.78-.17-1.02-.52-.24-.34-.37-.67-.37-.99,0-.13.06-.46.19-.99.16-.66.3-1.41.4-2.26l.97-8.91c.08-.84.15-1.39.21-1.64.06-.25.22-.48.47-.68.25-.2.59-.3,1.02-.3.34,0,.64.13.9.39s.39.54.39.84c0,.27-.06.76-.19,1.46-.19,1-.45,2.93-.78,5.78-.34,2.85-.5,4.36-.5,4.52,0,.21.04.31.11.31.27,0,1.02-.1,2.25-.29.57-.09,1.15-.15,1.74-.18,1.68-.08,2.85-.2,3.52-.37.21-.05.37-.08.47-.08.39,0,.7.12.92.35.22.23.33.51.33.83,0,.48-.19.86-.57,1.15-.38.29-.82.44-1.31.44Z"/>
      <path class="cls-4" d="m25.75,61.79c-.48,1.68-1.39,3.09-2.73,4.24-1.34,1.15-2.68,1.72-4.02,1.72-1.06,0-1.93-.39-2.62-1.17-.69-.78-1.03-1.73-1.03-2.86,0-1.85.63-3.67,1.89-5.46,1.26-1.79,2.79-2.69,4.59-2.69,1.22,0,2.22.45,2.98,1.36.76.91,1.14,1.99,1.14,3.24,0,.54-.06,1.08-.18,1.6h0Zm-5.59-3.39c-.5.44-.99,1.15-1.47,2.13-.48.97-.72,1.95-.72,2.93,0,.59.11,1.08.33,1.47.22.39.51.58.86.58.89,0,1.81-.53,2.77-1.58.96-1.05,1.44-2.23,1.44-3.54,0-.74-.16-1.34-.47-1.82-.31-.48-.75-.71-1.31-.71s-1.01.18-1.43.55h-.01Z"/>
      <path class="cls-4" d="m35.35,63.94c-.79.9-1.72,1.63-2.78,2.21-1.06.58-1.97.86-2.73.86s-1.35-.22-1.77-.67c-.42-.44-.63-1.06-.63-1.84,0-1.11.42-2.35,1.26-3.71.84-1.36,2.01-2.54,3.5-3.55,1.49-1.01,2.84-1.51,4.03-1.51.66,0,1.23.18,1.71.54.11.09.21.16.3.21.17.12.33.35.48.67.15.33.22.59.22.79,0,.13-.14.56-.41,1.3-.28.77-.47,1.51-.59,2.23-.11.72-.33,2.52-.66,5.39-.29,2.5-.99,4.33-2.09,5.48-1.1,1.15-2.33,1.73-3.67,1.73s-2.78-.47-4.11-1.42c-1.33-.95-1.99-1.73-1.99-2.35,0-.54.27-.82.79-.82.21,0,.63.21,1.27.62,1.63,1.07,3.03,1.61,4.2,1.61.89,0,1.63-.56,2.23-1.67.6-1.11,1.08-3.15,1.43-6.12Zm.26-5.97c-.53,0-1.22.32-2.08.95s-1.65,1.49-2.38,2.56-1.1,1.97-1.1,2.67c0,.37.14.56.41.56.92,0,1.84-.37,2.75-1.12.91-.75,1.65-1.61,2.21-2.58.56-.97.84-1.71.84-2.21,0-.25-.06-.45-.19-.6s-.28-.23-.45-.23Z"/>
      <path class="cls-4" d="m41.66,56.8c.69-4.12,1.19-6.56,1.5-7.32.3-.76.84-1.14,1.6-1.14.59,0,.88.52.88,1.56,0,.71-.29,2.18-.88,4.42-.31,1.1-.68,2.77-1.12,5.01.89-1.18,1.86-2.14,2.91-2.87,1.05-.73,1.99-1.1,2.81-1.1.67,0,1.23.29,1.68.86.45.58.67,1.26.67,2.04,0,2.21-.85,4.28-2.54,6.22-1.69,1.94-3.49,2.91-5.4,2.91-.57,0-1.11-.16-1.6-.47-.49-.31-.77-.71-.84-1.2-.03-.26-.08-.44-.16-.53-.08-.09-.16-.18-.25-.28-.21-.21-.31-.52-.31-.9,0-.44.11-1.37.33-2.77l.72-4.45Zm1.27,7.63c.3.5.64.75,1.01.75.67,0,1.42-.31,2.24-.93.82-.62,1.53-1.49,2.14-2.62.6-1.12.91-2.06.91-2.8s-.11-1.06-.33-1.06c-1.14,0-2.42.83-3.83,2.5s-2.13,3.05-2.13,4.16Z"/>
      <path class="cls-4" d="m63.5,61.79c-.48,1.68-1.39,3.09-2.73,4.24-1.34,1.15-2.68,1.72-4.02,1.72-1.06,0-1.93-.39-2.62-1.17-.69-.78-1.03-1.73-1.03-2.86,0-1.85.63-3.67,1.89-5.46,1.26-1.79,2.79-2.69,4.59-2.69,1.22,0,2.22.45,2.98,1.36.76.91,1.14,1.99,1.14,3.24,0,.54-.06,1.08-.18,1.6h0Zm-5.59-3.39c-.5.44-.99,1.15-1.47,2.13-.48.97-.72,1.95-.72,2.93,0,.59.11,1.08.33,1.47.22.39.51.58.86.58.89,0,1.81-.53,2.77-1.58.96-1.05,1.44-2.23,1.44-3.54,0-.74-.16-1.34-.47-1.82-.31-.48-.75-.71-1.31-.71s-1.01.18-1.43.55h-.01Z"/>
      <path class="cls-4" d="m75.89,61.79c-.48,1.68-1.39,3.09-2.73,4.24-1.34,1.15-2.68,1.72-4.02,1.72-1.06,0-1.93-.39-2.62-1.17-.69-.78-1.03-1.73-1.03-2.86,0-1.85.63-3.67,1.89-5.46,1.26-1.79,2.79-2.69,4.59-2.69,1.22,0,2.22.45,2.98,1.36.76.91,1.14,1.99,1.14,3.24,0,.54-.06,1.08-.18,1.6h0Zm-5.59-3.39c-.5.44-.99,1.15-1.47,2.13-.48.97-.72,1.95-.72,2.93,0,.59.11,1.08.33,1.47.22.39.51.58.86.58.89,0,1.81-.53,2.77-1.58.96-1.05,1.44-2.23,1.44-3.54,0-.74-.16-1.34-.47-1.82-.31-.48-.75-.71-1.31-.71s-1.01.18-1.43.55h-.01Z"/>
      <path class="cls-4" d="m88.11,58.26h.01l-.02.02c-.42.23-.75.43-1.01.6-.48.32-.96.67-1.45,1.04-.56.43-.98.79-1.26,1.08-.24.24-.35.42-.35.54,0,.13.42.63,1.26,1.51.84.88,1.5,1.51,1.99,1.89.49.38.98.57,1.46.57h.47c.17-.01.31.04.41.15.1.1.16.26.16.47,0,.29-.18.63-.55,1.02s-.99.58-1.88.58c-.52,0-1.05-.19-1.59-.57s-1.36-1.25-2.47-2.59c-.89-1.08-1.37-1.62-1.45-1.62-.05,0-.2.13-.45.39-.25.26-.42.46-.49.59h0c-.12.61-.18,1.38-.18,2.34,0,.48-.14.87-.42,1.17-.28.3-.63.45-1.04.45s-.75-.12-.99-.36c-.24-.24-.35-.48-.35-.73,0-.26.09-.82.27-1.7.34-1.7.63-3.95.87-6.76.23-2.24.43-3.99.6-5.25s.33-2.08.46-2.47c.14-.39.35-.7.63-.93.29-.23.59-.35.92-.35s.57.13.76.39c.19.26.28.58.28.95,0,.47-.3,2.28-.9,5.46l-.26,1.41h.01c-.32,2.07-.48,3.27-.48,3.59l3.3-2.99c1.68-1.63,2.92-2.44,3.71-2.44s1.14.3,1.14.91c0,.76-.37,1.31-1.11,1.64Z"/>
    </g>
  </g>
</svg>